<svg t="1716962651580" class="icon" viewBox="0 0 1171 1024" version="1.1" xmlns="http://www.w3.org/2000/svg" p-id="956" width="16" height="16"><path d="M686.618195 222.717619c97.113302 2.028949 194.245656 7.715721 291.401824 17.055553 46.027609 4.781842 91.917098 49.180577 98.951739 97.403833 24.109247 172.341581 22.456558 344.726028-4.948539 517.148576-7.996726 48.21373-54.114828 96.479851-99.475647 104.990959-257.824149 46.127628-515.634009 43.660502-773.458158-7.382326-45.365581-9.416037-91.283647-57.572614-99.080335-104.762344-26.719256-168.902847-28.190958-337.843795-4.424632-506.822847 6.939386-47.246884 52.647888-91.269358 98.623106-96.551293a3890.709433 3890.709433 0 0 1 291.187498-20.046586" fill="#C4C4E6" p-id="957"></path><path d="M468.063256 340.620502a8987.957581 8987.957581 0 0 1 8.415851-212.972949c3.238698-53.357544 44.73213-99.894772 91.436056-100.842567 11.097302-0.209563 22.194605-0.32387 33.291907-0.338158 46.703926-0.052391 88.225935 45.884726 91.507497 99.518512 3.6864 71.241823 6.52026 142.550326 8.492056 213.925507" fill="#C4C4E6" p-id="958"></path><path d="M231.495442 477.731721c71.394233-0.500093 142.807516-0.857302 214.235088-1.071628-1.443126 98.556428-0.99066 197.231926 1.352633 296.016967a4176.576893 4176.576893 0 0 1-212.072782-13.545376 2739.652465 2739.652465 0 0 1-3.514939-281.399963z" fill="#619DBF" p-id="959"></path><path d="M552.898084 471.549619a43922.122419 43922.122419 0 0 1 383.971423 1.204986c0.619163 15.588614 1.10973 31.177228 1.476465 46.770604-128.576298 0.781098-257.100205 1.104967-385.581246 0.976372 0.028577-16.322084 0.076205-32.639405 0.133358-48.951962zM552.683758 598.86854a11967.749953 11967.749953 0 0 0 235.720037-1.252614c-0.03334 16.131572-0.142884 32.258381-0.328632 48.399479-78.476502 1.771758-156.919665 2.400447-235.353303 1.862251-0.023814-16.331609-0.038102-32.672744-0.038102-49.009116zM552.907609 721.434195c105.343405 1.090679 210.710623-0.995423 316.111182-6.239255a3548.326698 3548.326698 0 0 1-2.052763 47.675534 4250.990735 4250.990735 0 0 1-313.848856 7.634754c-0.080967-16.364949-0.152409-32.720372-0.209563-49.071033z" fill="#4E4E6B" opacity=".5" p-id="960"></path></svg>