<svg t="1716965220557" class="icon" viewBox="0 0 1024 1024" version="1.1" xmlns="http://www.w3.org/2000/svg" p-id="956" width="16" height="16"><path d="M512 79.698581C255.025548 78.290581 88.720516 245.859097 80.900129 511.905032c-4.31071 130.085161 27.602581 241.990194 102.924387 315.664516 74.029419 74.677677 191.467355 111.124645 328.175484 113.531871 136.712258 0.359226 254.059355-33.903484 327.869935-108.634838 75.131871-73.583484 106.731355-187.635613 102.428904-320.371613C934.581677 239.892645 769.11071 72.369548 512 79.698581zM308.277677 300.32929c93.245935-92.804129 245.020903-105.220129 354.836646-42.033548-135.481806 139.528258-259.323871 263.490065-402.452646 402.721032-61.716645-110.942968-44.845419-267.321806 47.616-360.687484z m414.459871 414.724129c-91.173161 90.718968-250.900645 100.843355-363.837935 41.327484 144.635871-135.580903 267.759484-258.708645 399.752258-399.686193 60.96929 111.789419 55.052387 267.218581-35.914323 358.358709z" fill="#FFE600" p-id="957"></path><path d="M302.022194 299.648c82.498065-80.338581 327.746065-103.279484 358.09858-9.843613 8.48929-7.956645 17.032258-15.966968 25.637161-24.043355 29.233548-29.679484-1.498839-47.120516-16.222967-56.670967C561.969548 141.146839 379.870968 166.053161 299.528258 245.665032 238.728258 306.056258 215.948387 392.832 222.76129 478.174968c6.329806-66.725161 31.364129-130.543484 79.260904-178.526968z m633.211871 178.568258c-5.632 257.531871-163.522065 416.487226-427.412646 410.24-263.76671 1.350194-422.519742-157.109677-428.085677-408.856774-0.627613 9.480258-1.085935 19.034839-1.304774 28.676129-1.775484 130.048 28.783484 243.005935 103.052387 317.691871 72.836129 75.697548 189.378065 113.118968 326.387613 115.348645 137.017806 0.256 253.452387-35.237161 326.05729-111.170064 74.066581-74.780903 104.299355-189.997419 102.598194-322.679742a701.427613 701.427613 0 0 0-1.292387-29.250065zM341.677419 769.482323c150.276129-140.060903 274.448516-267.119484 414.25342-414.410323 20.252903 37.016774 31.917419 78.971871 35.910193 122.02529 4.298323-62.327742-14.905806-197.12-70.152258-139.202064-133.714581 140.312774-252.956903 263.399226-394.603355 398.323613-14.055226 13.258323 6.131613 32.772129 14.592 33.263484z" fill="#FFB624" p-id="958"></path></svg>